<svg width="58" height="58" viewBox="0 0 58 58" fill="none" xmlns="http://www.w3.org/2000/svg">
<path d="M0 7.25C0 5.32718 0.763837 3.48311 2.12348 2.12348C3.48311 0.763837 5.32718 0 7.25 0L50.75 0C52.6728 0 54.5169 0.763837 55.8765 2.12348C57.2362 3.48311 58 5.32718 58 7.25V50.75C58 52.6728 57.2362 54.5169 55.8765 55.8765C54.5169 57.2362 52.6728 58 50.75 58H7.25C5.32718 58 3.48311 57.2362 2.12348 55.8765C0.763837 54.5169 0 52.6728 0 50.75V7.25ZM19.9375 43.5C19.9374 43.8494 20.0383 44.1913 20.228 44.4847C20.4177 44.7781 20.6882 45.0104 21.0069 45.1536C21.3255 45.2969 21.6788 45.345 22.0242 45.2921C22.3695 45.2393 22.6923 45.0877 22.9535 44.8557L39.266 30.3557C39.4577 30.1857 39.6111 29.9769 39.7162 29.7432C39.8212 29.5095 39.8755 29.2562 39.8755 29C39.8755 28.7438 39.8212 28.4905 39.7162 28.2568C39.6111 28.0231 39.4577 27.8143 39.266 27.6442L22.9535 13.1442C22.6923 12.9123 22.3695 12.7607 22.0242 12.7079C21.6788 12.655 21.3255 12.7031 21.0069 12.8464C20.6882 12.9896 20.4177 13.2219 20.228 13.5153C20.0383 13.8087 19.9374 14.1506 19.9375 14.5V43.5Z" fill="#215EAB"/>
</svg>
